<svg
	xmlns="http://www.w3.org/2000/svg" style="display: none;">
	<symbol id="parchment" viewBox="0 0 512 512">
		<title>parchment</title>
		<g>
			<path d="m451.5 419.156h-66.292c-1.591 0-3.117-.632-4.243-1.757l-9-9c-2.343-2.343-6.142-2.343-8.485 0l-9 9c-1.125 1.125-2.651 1.757-4.243 1.757h-289.737v-326.311h92.926c1.591 0 3.117.632 4.243 1.757l9 9c2.343 2.343 6.142 2.343 8.485 0l9-9c1.125-1.125 2.651-1.757 4.243-1.757h263.103z" fill="#f3dcb0"/>
			<g>
				<g>
					<path d="m22.5 54.5h53v403h-53z" fill="#ce9775"/>
					<path d="m75.5 53.5h-53v-19.5c0-14.635 11.865-26.5 26.5-26.5 14.636 0 26.5 11.864 26.5 26.5z" fill="#655e67"/>
					<path d="m52.454 53.5v-19.5c0-10.506-6.114-19.583-14.977-23.869 3.485-1.685 7.393-2.631 11.523-2.631 14.635 0 26.5 11.864 26.5 26.5v19.5z" fill="#544f56"/>
					<path d="m84.5 69.5h-71c-3.314 0-6-2.686-6-6v-19c0-3.314 2.686-6 6-6h71c3.314 0 6 2.686 6 6v19c0 3.314-2.686 6-6 6z" fill="#b0aab3"/>
				</g>
				<g>
					<path d="m75.5 458.5h-53v19.5c0 14.636 11.864 26.5 26.5 26.5 14.636 0 26.5-11.864 26.5-26.5z" fill="#655e67"/>
					<path d="m52.454 458.5v19.5c0 10.506-6.114 19.583-14.977 23.869 3.485 1.686 7.393 2.631 11.523 2.631 14.635 0 26.5-11.864 26.5-26.5v-19.5z" fill="#544f56"/>
					<path d="m84.5 442.5h-71c-3.314 0-6 2.686-6 6v19c0 3.314 2.686 6 6 6h71c3.314 0 6-2.686 6-6v-19c0-3.313-2.686-6-6-6z" fill="#b0aab3"/>
				</g>
			</g>
			<g>
				<g>
					<path d="m436.5 54.5h53v403h-53z" fill="#ce9775"/>
					<path d="m489.5 53.5h-53v-19.5c0-14.636 11.864-26.5 26.5-26.5 14.636 0 26.5 11.864 26.5 26.5z" fill="#655e67"/>
					<path d="m466.454 53.5v-19.5c0-10.506-6.114-19.583-14.977-23.869 3.485-1.685 7.393-2.631 11.523-2.631 14.635 0 26.5 11.864 26.5 26.5v19.5z" fill="#544f56"/>
					<path d="m498.5 69.5h-71c-3.314 0-6-2.686-6-6v-19c0-3.314 2.686-6 6-6h71c3.314 0 6 2.686 6 6v19c0 3.314-2.686 6-6 6z" fill="#b0aab3"/>
					<g fill="#c6855b">
						<path d="m459.5 69.5h30v373h-30z"/>
						<path d="m45.5 69.5h30v373h-30z"/>
					</g>
				</g>
				<g>
					<path d="m489.5 458.5h-53v19.5c0 14.636 11.864 26.5 26.5 26.5 14.636 0 26.5-11.864 26.5-26.5z" fill="#655e67"/>
					<path d="m466.454 458.5v19.5c0 10.506-6.114 19.583-14.977 23.869 3.484 1.686 7.393 2.631 11.523 2.631 14.635 0 26.5-11.864 26.5-26.5v-19.5z" fill="#544f56"/>
					<path d="m498.5 442.5h-71c-3.314 0-6 2.686-6 6v19c0 3.314 2.686 6 6 6h71c3.314 0 6-2.686 6-6v-19c0-3.313-2.686-6-6-6z" fill="#b0aab3"/>
					<g fill="#a199a4">
						<path d="m498.5 442.5h-30c3.314 0 6 2.687 6 6v19c0 3.313-2.686 6-6 6h30c3.314 0 6-2.687 6-6v-19c0-3.313-2.686-6-6-6z"/>
						<path d="m498.5 38.5h-30c3.314 0 6 2.687 6 6v19c0 3.313-2.686 6-6 6h30c3.314 0 6-2.687 6-6v-19c0-3.313-2.686-6-6-6z"/>
						<path d="m84.5 442.5h-30c3.314 0 6 2.687 6 6v19c0 3.313-2.686 6-6 6h30c3.314 0 6-2.687 6-6v-19c0-3.313-2.686-6-6-6z"/>
						<path d="m84.5 38.5h-30c3.314 0 6 2.687 6 6v19c0 3.313-2.686 6-6 6h30c3.314 0 6-2.687 6-6v-19c0-3.313-2.686-6-6-6z"/>
					</g>
				</g>
			</g>
		</g>
		<path d="m115 153h207.305c4.142 0 7.5-3.358 7.5-7.5s-3.358-7.5-7.5-7.5h-207.305c-4.142 0-7.5 3.358-7.5 7.5s3.358 7.5 7.5 7.5zm282 75h-282c-4.142 0-7.5 3.358-7.5 7.5s3.358 7.5 7.5 7.5h282c4.142 0 7.5-3.358 7.5-7.5s-3.358-7.5-7.5-7.5zm0-45h-282c-4.142 0-7.5 3.358-7.5 7.5s3.358 7.5 7.5 7.5h282c4.142 0 7.5-3.358 7.5-7.5s-3.358-7.5-7.5-7.5zm0-45h-39.695c-4.142 0-7.5 3.358-7.5 7.5s3.358 7.5 7.5 7.5h39.695c4.142 0 7.5-3.358 7.5-7.5s-3.358-7.5-7.5-7.5zm115-74.5v-19c-.021-7.997-7.084-14.334-15.14-13.5-1.524-17.346-16.124-31-33.86-31s-32.335 13.653-33.86 31c-7.961-.563-15.135 5.256-15.14 13.5v19c-.052 7.858 7.04 14.336 15 13.5v8.345h-240.603c-3.606 0-6.996 1.404-9.546 3.954l-7.939 7.939-7.939-7.939c-2.55-2.55-5.94-3.954-9.546-3.954h-70.427v-8.345c7.845.423 15.045-5.25 15-13.5v-19c-.043-7.858-7.037-14.44-15.14-13.5-1.524-17.346-16.124-31-33.86-31s-32.335 13.654-33.86 31c-7.967-.575-15.136 5.265-15.14 13.5v19c-.049 7.858 7.04 14.336 15 13.5v188.008c0 4.143 3.358 7.5 7.5 7.5s7.5-3.357 7.5-7.5v-188.008h38v358h-38v-134.993c0-4.143-3.358-7.5-7.5-7.5s-7.5 3.357-7.5 7.5v134.993c-7.919-.511-14.997 5.317-15 13.5v19c-.056 7.88 7.135 14.417 15.14 13.5 1.525 17.347 16.124 31 33.86 31s32.335-13.653 33.86-31c7.925.556 15.177-5.248 15.14-13.5v-19c-.036-7.791-6.952-14.392-15-13.5v-8.345h267.238c3.607 0 6.998-1.405 9.546-3.954l7.939-7.939 7.937 7.937c2.549 2.552 5.94 3.957 9.548 3.957h43.792v8.344c-7.913-.5-14.996 5.309-15 13.5v19c-.059 7.88 7.135 14.417 15.14 13.5 1.525 17.347 16.124 31 33.86 31s32.335-13.653 33.86-31c7.92.556 15.178-5.248 15.14-13.5v-19c-.01-8.195-7.046-14.093-15-13.5v-358c7.883.532 15.035-5.33 15-13.5zm-49-48.5c9.453 0 17.294 6.947 18.739 16h-37.479c1.447-9.052 9.287-16 18.74-16zm-414 0c9.453 0 17.294 6.947 18.739 16h-37.478c1.446-9.052 9.286-16 18.739-16zm0 482c-9.453 0-17.294-6.947-18.74-16h37.48c-1.446 9.053-9.286 16-18.74 16zm34-31h-68v-16h68zm-68-404v-16h68v16zm370.83 349.656-8.562-8.562c-5.264-5.262-13.828-5.263-19.091 0l-8.561 8.562h-266.616v-311.311h69.805l8.561 8.561c5.264 5.264 13.828 5.264 19.092 0l8.561-8.561h239.981v311.311zm77.17 85.344c-9.453 0-17.294-6.947-18.739-16h37.479c-1.446 9.053-9.286 16-18.74 16zm34-31h-68v-16h68zm-53-31v-358h38v358zm-15-373v-16h68v16zm-32 256h-282c-4.142 0-7.5 3.357-7.5 7.5s3.358 7.5 7.5 7.5h282c4.142 0 7.5-3.357 7.5-7.5s-3.358-7.5-7.5-7.5zm-90 45h-192c-4.142 0-7.5 3.357-7.5 7.5s3.358 7.5 7.5 7.5h192c4.142 0 7.5-3.357 7.5-7.5s-3.358-7.5-7.5-7.5zm90-90h-282c-4.142 0-7.5 3.357-7.5 7.5s3.358 7.5 7.5 7.5h282c4.142 0 7.5-3.357 7.5-7.5s-3.358-7.5-7.5-7.5z"/>
	</symbol>
	<symbol id="scroll" viewBox="0 0 64 64">
		<title>scroll</title>
		<g>
			<g>
				<path d="m50 52c-3.859 0-7-3.141-7-7s3.141-7 7-7 7 3.141 7 7-3.141 7-7 7zm0-9c-1.103 0-2 .897-2 2s.897 2 2 2 2-.897 2-2-.897-2-2-2z" fill="#f0bc5e"/>
			</g>
		</g>
		<g>
			<path d="m41 29h-10v12h10v-8h16v-4z" fill="#f0bc5e"/>
		</g>
		<g>
			<path d="m50 42c-1.654 0-3 1.346-3 3s1.346 3 3 3 3-1.346 3-3-1.346-3-3-3zm0 4c-.552 0-1-.448-1-1s.448-1 1-1 1 .448 1 1-.448 1-1 1z"/>
			<path d="m56 10h-2c-2.757 0-5 2.243-5 5v7h-30.373c-1.497-9.173-7.528-17.111-16.227-20.916l-1.4-.613v1.529c0 12.054 1.987 17.16 2.071 17.371l.115.289 2.623 1.748-.89 2.668 1.779 3.56c1.99 3.978 5.168 7.242 9.048 9.364h-4.746c-1.103 0-2 .897-2 2v2c0 1.073.853 1.946 1.915 1.991-.275 1.78-1.273 3.378-2.798 4.395l-1.259.839c-1.164.777-1.858 2.076-1.858 3.474 0 2.368.732 4.646 2.119 6.589l.059.08c2.071 2.901 5.438 4.634 9.005 4.634l3.517-.001c3.642-.001 7.079-1.771 9.195-4.733.062-.087.116-.179.176-.268h26.929c3.859 0 7-3.141 7-7v-34c0-3.859-3.141-7-7-7zm-2 2h2c2.757 0 5 2.243 5 5 0 1.627-.793 3.061-2 3.974v-3.974c0-1.654-1.346-3-3-3h-3v3.829c-1.164-.413-2-1.525-2-2.829 0-1.654 1.346-3 3-3zm3 5c0 .552-.448 1-1 1h-1v-2h1c.552 0 1 .448 1 1zm-6 1.974c.838.635 1.87 1.026 3 1.026h2c.352 0 .686-.072 1-.184v2.083c-.323.066-.658.101-1 .101h-5zm-42.512 7.767-1.408-2.818 1.11-3.331-3.357-2.238c-.37-1.128-1.681-5.739-1.821-14.768 8.548 4.373 13.988 13.189 13.988 22.878v3.404c-3.302-9.871-8.882-18.01-9.178-18.437l-1.645 1.139c.082.118 7.514 10.955 10.229 22.507-3.387-1.931-6.162-4.826-7.918-8.336zm2.512 12.259h14l.002 2h-14.002zm-3.032 10.89 1.259-.839c2.082-1.388 3.422-3.601 3.711-6.051h10.124c.289 2.45 1.629 4.662 3.711 6.051l1.259.839c.273.182.487.425.65.697-2.919 1.575-6.187 2.413-9.513 2.413h-2.338c-3.326 0-6.594-.838-9.514-2.413.164-.273.378-.515.651-.697zm19.3 7.215c-1.742 2.438-4.571 3.895-7.568 3.896l-3.517.001c-2.923 0-5.681-1.419-7.38-3.8l-.059-.08c-.939-1.317-1.491-2.825-1.665-4.403 3.026 1.492 6.363 2.281 9.752 2.281h2.338c3.389 0 6.726-.789 9.752-2.282-.172 1.578-.72 3.081-1.653 4.387zm33.732-6.105c0 2.757-2.243 5-5 5h-25.849c.559-1.354.849-2.808.849-4.301 0-1.398-.694-2.697-1.858-3.474l-1.259-.839c-1.525-1.017-2.523-2.615-2.798-4.395 1.062-.045 1.915-.918 1.915-1.991v-2c0-1.103-.897-2-2-2h-6v-10.536c0-.829-.049-1.649-.122-2.464h37.122c1.958 0 3.728-.81 5-2.111z"/>
			<path d="m39.102 43.562-3.273 6.543-2.329-3.105h-2.5v2h1.5l3.671 4.895 2.727-5.456 1.425 3.561h2.677v-2h-1.323z"/>
			<path d="m31 40h10v2h-10z"/>
			<path d="m31 36h10v2h-10z"/>
			<path d="m31 32h26v2h-26z"/>
			<path d="m27.223 29.863-2-5-2.758 4.137h-1.465v2h2.535l1.242-1.863 2 5 2.758-4.137h27.465v-2h-28.535z"/>
		</g>
	</symbol>
	<symbol id="ballad" viewBox="0 0 512 512">
		<title>ballad</title>
		<path d="m281.52 504.491h-210.454c-2.631 0-4.765-2.133-4.765-4.765v-301.685c0-2.631 2.133-4.765 4.765-4.765h210.454c2.631 0 4.765 2.133 4.765 4.765v301.685c0 2.632-2.133 4.765-4.765 4.765z" fill="#eedfda"/>
		<path d="m281.348 193.276h-39.838v263.574c0 2.727-2.21 4.937-4.937 4.937h-170.272v37.765c0 2.727 2.211 4.937 4.937 4.937h210.109c2.727 0 4.937-2.211 4.937-4.937v-301.34c.001-2.725-2.21-4.936-4.936-4.936z" fill="#ded0cb"/>
		<path d="m329.922 134.663 111.017 79.301c7.768 5.549 5.627 17.625-3.575 20.166-2.73.754-5.644.459-8.168-.827l-129.639-66.036z" fill="#fce25c"/>
		<path d="m440.939 213.964-4.112-2.937c-2.573.578-5.271.254-7.631-.948l-114.969-58.563-14.67 15.752 129.639 66.036c2.524 1.286 5.438 1.581 8.168.827 9.202-2.541 11.343-14.618 3.575-20.167z" fill="#fcdd2e"/>
		<path d="m301.076 78.763c-12.598-7.179-24.7-13.476-35.986-17.651-.399-25.752-21.386-46.509-47.233-46.509-26.096 0-47.252 21.155-47.252 47.251 0 19.067 11.3 35.485 27.562 42.952-1.633 28.627 15.053 58.835 44.863 75.821 39.959 22.77 88.349 13.157 108.081-21.472 19.733-34.628-10.076-57.622-50.035-80.392z" fill="#fce25c"/>
		<path d="m338.201 103.759c1.45 8.187-.167 17.046-5.745 26.835-19.732 34.628-68.122 44.242-108.081 21.472-7.979-4.546-15-10.052-21-16.209 6.994 17.739 20.653 33.943 39.655 44.771 39.959 22.77 88.349 13.157 108.081-21.472 12.687-22.265 4.893-39.719-12.91-55.397z" fill="#fcdd2e"/>
		<path d="m284.354 89.383c-14.607 9.606-13.079 31.581 2.782 38.932 10.841 5.024 25.784 8.857 46.145 8.857 38.339 0 79.298-16.131 103.323-27.452 6.216-2.929 4.532-12.195-2.316-12.758l-135.811-11.182c-4.978-.41-9.95.859-14.123 3.603z" fill="#fce25c"/>
		<path d="m434.289 96.962-38.199-3.145c-24.482 10.762-60.502 23.426-94.475 23.426-10.05 0-18.775-.937-26.343-2.487 1.738 5.667 5.721 10.711 11.865 13.559 10.841 5.024 25.784 8.857 46.145 8.857 38.339 0 79.298-16.131 103.323-27.452 6.216-2.929 4.532-12.194-2.316-12.758z" fill="#fcdd2e"/>
		<path d="m164.547 43.37-18.982-30.322c-2.095-3.347 1.952-7.137 5.154-4.826l33.306 24.035c5.762 4.158 10.357 9.73 13.341 16.179 1.535 3.316.402 7.256-2.659 9.251l-5.893 3.841c-5.75 3.748-12.342 6.007-19.183 6.574l-32.281 2.675c-3.784.314-5.41-4.689-2.164-6.66l28.55-17.334c1.176-.712 1.54-2.248.811-3.413z" fill="#e7b467"/>
		<path d="m197.367 48.436c-2.579-5.573-6.365-10.485-11.063-14.402 1.38 1.979 2.602 4.072 3.623 6.278 1.535 3.316.402 7.256-2.659 9.252l-5.893 3.841c-5.75 3.748-12.342 6.007-19.183 6.574l-23.379 1.937-3.626 2.202c-3.246 1.971-1.62 6.973 2.164 6.66l32.281-2.675c6.84-.567 13.433-2.826 19.183-6.574l5.893-3.841c3.061-1.996 4.193-5.936 2.659-9.252z" fill="#d7a85f"/>
		<path d="m286.285 226.279c-4.147 0-7.509 3.361-7.509 7.509v263.194h-204.965v-43.072c0-4.147-3.361-7.509-7.509-7.509s-7.509 3.361-7.509 7.509v45.81c0 6.771 5.508 12.279 12.279 12.279h210.443c6.771 0 12.279-5.508 12.279-12.279v-265.932c0-4.147-3.361-7.509-7.509-7.509z"/>
		<path d="m202.314 261.804c4.147 0 7.509-3.361 7.509-7.509s-3.361-7.509-7.509-7.509h-53.8c-4.147 0-7.509 3.361-7.509 7.509s3.361 7.509 7.509 7.509z"/>
		<path d="m116.503 302.908c0 4.147 3.361 7.509 7.509 7.509h102.804c4.147 0 7.509-3.361 7.509-7.509s-3.361-7.509-7.509-7.509h-102.804c-4.148 0-7.509 3.362-7.509 7.509z"/>
		<path d="m124.012 340.873h102.804c4.147 0 7.509-3.361 7.509-7.509s-3.361-7.509-7.509-7.509h-102.804c-4.147 0-7.509 3.361-7.509 7.509s3.361 7.509 7.509 7.509z"/>
		<path d="m124.012 371.329h102.804c4.147 0 7.509-3.361 7.509-7.509s-3.361-7.509-7.509-7.509h-102.804c-4.147 0-7.509 3.361-7.509 7.509s3.361 7.509 7.509 7.509z"/>
		<path d="m124.012 402.41h102.804c4.147 0 7.509-3.361 7.509-7.509s-3.361-7.509-7.509-7.509h-102.804c-4.147 0-7.509 3.361-7.509 7.509s3.361 7.509 7.509 7.509z"/>
		<path d="m124.012 432.867h102.804c4.147 0 7.509-3.361 7.509-7.509s-3.361-7.509-7.509-7.509h-102.804c-4.147 0-7.509 3.361-7.509 7.509s3.361 7.509 7.509 7.509z"/>
		<path d="m445.304 207.854-81.969-58.551c.683-2.557 1.134-5.102 1.358-7.626 28.176-5.091 55.203-15.782 75.114-25.165 5.905-2.783 9.092-8.969 7.929-15.392-1.163-6.427-6.32-11.106-12.831-11.642l-117.384-9.664c-.232-.183-.474-.358-.732-.516-3.619-2.214-7.542-4.523-11.996-7.06-13.133-7.483-23.396-12.663-32.517-16.386-3.021-27.319-26.429-48.758-54.418-48.758-13.614 0-26.466 4.94-36.521 13.963l-26.223-18.923c-4.366-3.151-10.159-2.781-14.089.897-3.93 3.68-4.681 9.437-1.824 14.002l16.268 25.987-24.179 14.68c-4.425 2.688-6.398 8.004-4.799 12.926 1.503 4.625 5.758 7.675 10.543 7.675.31 0 .623-.014.937-.039l26.979-2.236c3.741 14.06 12.916 26.012 25.601 33.294.234 29.177 17.138 57.816 44.368 75.169-.366.179-.621.314-.747.383-.47.257-.9.559-1.292.896h-161.808c-6.771 0-12.279 5.508-12.279 12.279v220.823c0 4.147 3.361 7.509 7.509 7.509s7.509-3.361 7.509-7.509v-218.085h188.077c-6.554 4.623-9.909 9.352-10.19 9.758-2.356 3.412-1.518 8.115 1.895 10.471 1.309.904 2.801 1.339 4.278 1.339 2.37 0 4.698-1.123 6.15-3.226.408-.568 10.216-13.902 30.611-12.316 4.148.326 7.749-2.767 8.072-6.901.016-.203.017-.403.017-.602 9.255-1.438 18.134-4.317 26.212-8.653l96.858 49.338c2.675 1.363 5.601 2.057 8.548 2.056 1.683 0 3.372-.226 5.025-.681 7.076-1.953 12.267-7.657 13.547-14.884 1.28-7.226-1.635-14.365-7.607-18.63zm-277.67-154.651c2.299-1.395 3.907-3.605 4.528-6.222.622-2.616.178-5.314-1.25-7.594 0-.001 0-.001 0-.001l-8.372-13.372 17.092 12.333c4.671 3.371 8.425 7.906 10.864 13.124l-5.78 3.768c-4.693 3.058-10.123 4.919-15.703 5.381l-15.743 1.305zm270.488 170.66c-.127.718-.649 2.447-2.754 3.028-.926.256-1.907.155-2.762-.279l-100.476-51.18c-2.328-1.186-5.104-1.077-7.33.287-22.024 13.487-52.661 12.853-78.053-1.616-26.482-15.09-42.608-42.123-41.082-68.87.175-3.085-1.556-5.962-4.364-7.251-10.371-4.763-18.035-13.58-21.358-24.22 4.578-1.342 8.964-3.331 12.972-5.943l5.893-3.841c6.143-4.005 8.452-12.043 5.373-18.695-2.583-5.582-6.215-10.621-10.649-14.85 6.933-5.39 15.401-8.321 24.325-8.321 21.571 0 39.39 17.547 39.725 39.116.048 3.099 1.996 5.851 4.902 6.926 7.168 2.652 15.066 6.321 24.816 11.556-1.539.507-3.045 1.127-4.496 1.885-3.675 1.92-5.098 6.457-3.177 10.132 1.921 3.676 6.461 5.097 10.132 3.177 2.495-1.303 5.297-1.868 8.101-1.64l132.815 10.935c-21.859 10.07-61.203 25.465-97.395 25.465-16.837 0-31.301-2.745-42.987-8.161-2.287-1.06-4.177-2.577-5.617-4.509-2.479-3.325-7.185-4.013-10.508-1.534-3.325 2.479-4.013 7.183-1.534 10.508 2.949 3.957 6.766 7.04 11.344 9.161 13.679 6.34 30.267 9.553 49.302 9.553 5.284 0 10.604-.295 15.923-.823-.391 1.815-.954 3.666-1.711 5.574-1.273 3.209-.194 6.872 2.615 8.879l86.466 61.763c1.779 1.269 1.676 3.073 1.549 3.788z"/>
		<circle cx="223.514" cy="56.838" r="8.938"/>
	</symbol>
	<symbol id="literature" viewBox="0 0 256 256">
		<title>literature</title>
		<g>
			<g>
				<path d="m47.34 26.448c-.974 11.564-13.025 13.389-13.025 13.389 10.347.488 12.925 14.06 12.925 14.06.221-9.677 13.321-14.202 13.321-14.202-9.813-.587-13.221-13.247-13.221-13.247z" fill="#d6df58"/>
			</g>
		</g>
		<g>
			<g>
				<path d="m60.651 38.198c-8.604-.516-11.832-12.025-11.863-12.142-.19-.702-.852-1.159-1.584-1.102-.725.066-1.298.642-1.359 1.367-.859 10.216-11.312 11.964-11.754 12.032-.763.116-1.313.791-1.273 1.561.04.771.657 1.385 1.428 1.421 9.027.426 11.498 12.719 11.521 12.843.138.712.76 1.218 1.473 1.218.042 0 .084-.002.126-.005.765-.064 1.357-.693 1.375-1.46.193-8.509 12.191-12.777 12.312-12.819.676-.234 1.092-.914.994-1.622s-.682-1.249-1.396-1.292zm-13.566 10.345c-1.356-3.13-3.708-6.907-7.586-8.876 2.931-1.404 6.408-3.913 8.201-8.273 1.551 3.071 4.2 6.881 8.334 8.723-3.008 1.639-6.923 4.404-8.949 8.426z" fill="#3a312a"/>
			</g>
		</g>
		<g>
			<g>
				<path d="m25.641 43.429c-.689 8.179-9.213 9.47-9.213 9.47 7.318.344 9.142 9.944 9.142 9.944.156-6.844 9.422-10.045 9.422-10.045-6.94-.415-9.351-9.369-9.351-9.369z" fill="#d6df58"/>
			</g>
		</g>
		<g>
			<g>
				<path d="m35.083 51.302c-5.767-.346-7.973-8.187-7.995-8.266-.189-.702-.859-1.161-1.581-1.102-.726.065-1.3.643-1.361 1.368-.578 6.871-7.646 8.066-7.941 8.113-.763.116-1.313.791-1.273 1.561.04.771.657 1.385 1.428 1.421 6.035.284 7.723 8.645 7.738 8.727.136.712.759 1.22 1.473 1.22.041 0 .083-.002.124-.005.766-.063 1.359-.693 1.377-1.461.13-5.709 8.332-8.633 8.412-8.661.677-.233 1.094-.913.997-1.622-.099-.709-.684-1.25-1.398-1.293zm-9.585 6.794c-.924-1.886-2.34-3.947-4.447-5.279 1.855-1.041 3.697-2.63 4.87-4.917 1.058 1.874 2.655 3.955 4.942 5.225-1.85 1.099-3.989 2.739-5.365 4.971z" fill="#3a312a"/>
			</g>
		</g>
		<g>
			<g>
				<path d="m25.641 16.771c-.689 8.179-9.213 9.471-9.213 9.471 7.318.344 9.142 9.944 9.142 9.944.156-6.845 9.422-10.045 9.422-10.045-6.94-.415-9.351-9.37-9.351-9.37z" fill="#d6df58"/>
			</g>
		</g>
		<g>
			<g>
				<path d="m35.083 24.644c-5.767-.345-7.973-8.186-7.995-8.265-.189-.702-.859-1.16-1.581-1.102-.726.065-1.3.643-1.361 1.368-.578 6.871-7.646 8.066-7.941 8.113-.763.116-1.313.791-1.273 1.561.04.771.657 1.385 1.428 1.421 6.035.284 7.723 8.645 7.738 8.727.136.712.759 1.22 1.473 1.22.041 0 .083-.002.124-.005.766-.063 1.359-.693 1.377-1.461.13-5.709 8.332-8.634 8.413-8.662.676-.233 1.093-.913.996-1.622-.099-.709-.684-1.251-1.398-1.293zm-9.585 6.794c-.924-1.886-2.34-3.947-4.447-5.279 1.855-1.041 3.697-2.63 4.87-4.917 1.058 1.874 2.655 3.954 4.941 5.224-1.849 1.1-3.988 2.74-5.364 4.972z" fill="#3a312a"/>
			</g>
		</g>
		<g>
			<g>
				<path d="m232.948 157.846h-209.896c-3.895 0-7.052 3.157-7.052 7.052v7.711c0 3.895 3.157 7.052 7.052 7.052h209.897c3.895 0 7.052-3.157 7.052-7.052v-7.711c-.001-3.894-3.158-7.052-7.053-7.052z" fill="#87796f"/>
			</g>
		</g>
		<g>
			<g>
				<path d="m232.948 156.347h-209.896c-4.716 0-8.552 3.836-8.552 8.551v7.712c0 4.716 3.836 8.552 8.552 8.552h209.896c4.716 0 8.552-3.836 8.552-8.552v-7.712c0-4.715-3.836-8.551-8.552-8.551zm5.552 16.262c0 3.062-2.49 5.552-5.552 5.552h-209.896c-3.062 0-5.552-2.49-5.552-5.552v-7.712c0-3.061 2.49-5.551 5.552-5.551h209.896c3.062 0 5.552 2.49 5.552 5.551z" fill="#3a312a"/>
			</g>
		</g>
		<g>
			<g>
				<path d="m36.175 179.667h183.65v59.562h-183.65z" fill="#87796f"/>
			</g>
		</g>
		<g>
			<g>
				<path d="m219.825 178.167h-183.65c-.828 0-1.5.672-1.5 1.5v23.171c0 .828.672 1.5 1.5 1.5s1.5-.672 1.5-1.5v-21.671h180.65v56.562h-180.65v-20.359c0-.828-.672-1.5-1.5-1.5s-1.5.672-1.5 1.5v21.858c0 .828.672 1.5 1.5 1.5h183.65c.828 0 1.5-.672 1.5-1.5v-59.562c0-.827-.672-1.499-1.5-1.499z" fill="#3a312a"/>
			</g>
		</g>
		<g>
			<g>
				<path d="m85.298 72.4v85.457c20.417-8.457 43.357-8.457 63.773 0v-85.457c-20.417-8.457-43.357-8.457-63.773 0z" fill="#fae6ca"/>
			</g>
		</g>
		<g>
			<g>
				<path d="m149.645 71.015c-20.934-8.672-43.987-8.671-64.921 0-.561.232-.926.779-.926 1.386v85.456c0 .501.25.969.667 1.247s.946.33 1.407.139c20.19-8.362 42.432-8.363 62.624 0 .185.076.38.114.574.114.292 0 .583-.086.833-.253.417-.278.667-.746.667-1.247v-85.457c0-.606-.365-1.153-.925-1.385zm-2.075 84.628c-9.841-3.783-20.112-5.675-30.387-5.675-10.273 0-20.545 1.892-30.386 5.675v-82.234c19.634-7.861 41.137-7.862 60.772 0v82.234z" fill="#3a312a"/>
			</g>
		</g>
		<g>
			<g>
				<path d="m21.523 72.4v85.457c20.417-8.457 43.357-8.457 63.773 0v-85.457c-20.417-8.457-43.357-8.457-63.773 0z" fill="#fae6ca"/>
			</g>
		</g>
		<g>
			<g>
				<path d="m85.87 71.015c-20.934-8.67-43.988-8.67-64.922 0-.561.232-.926.779-.926 1.386v85.456c0 .501.25.969.667 1.247s.946.33 1.407.139c20.191-8.363 42.434-8.363 62.625 0 .185.076.38.114.574.114.292 0 .583-.086.833-.253.417-.278.667-.746.667-1.247v-85.457c.001-.606-.364-1.153-.925-1.385zm-2.074 84.628c-9.841-3.783-20.113-5.674-30.387-5.674s-20.546 1.891-30.387 5.674v-82.234c19.637-7.861 41.137-7.861 60.773 0v82.234z" fill="#3a312a"/>
			</g>
		</g>
		<g>
			<g>
				<path d="m78.388 140.328c-16.346-5.041-33.619-5.042-49.957 0-.791.244-1.235 1.084-.991 1.876.199.645.792 1.058 1.434 1.058.146 0 .295-.021.442-.066 15.758-4.863 32.422-4.863 48.188 0 .794.243 1.632-.199 1.876-.991s-.201-1.633-.992-1.877z" fill="#3a312a"/>
			</g>
		</g>
		<g>
			<g>
				<path d="m141.699 140.184c-16.085-4.863-33.081-4.852-49.15.031-.793.241-1.24 1.079-1 1.871.197.647.792 1.064 1.435 1.064.145 0 .292-.021.437-.064 15.502-4.71 31.896-4.72 47.412-.031.788.241 1.63-.207 1.869-1.002.239-.793-.21-1.63-1.003-1.869z" fill="#3a312a"/>
			</g>
		</g>
		<g>
			<g>
				<path d="m78.388 128.455c-16.346-5.042-33.619-5.042-49.957 0-.791.244-1.235 1.084-.991 1.876.199.645.792 1.058 1.434 1.058.146 0 .295-.021.442-.066 15.758-4.863 32.422-4.863 48.188 0 .794.241 1.632-.199 1.876-.991s-.201-1.633-.992-1.877z" fill="#3a312a"/>
			</g>
		</g>
		<g>
			<g>
				<path d="m141.699 128.311c-16.085-4.861-33.083-4.849-49.15.032-.793.241-1.24 1.079-1 1.871.197.647.792 1.064 1.435 1.064.145 0 .292-.021.437-.064 15.501-4.71 31.896-4.721 47.412-.032.788.242 1.63-.208 1.869-1.002.239-.793-.21-1.63-1.003-1.869z" fill="#3a312a"/>
			</g>
		</g>
		<g>
			<g>
				<path d="m78.388 116.583c-16.346-5.041-33.619-5.042-49.957 0-.791.244-1.235 1.084-.991 1.876.199.645.792 1.058 1.434 1.058.146 0 .295-.021.442-.066 15.758-4.863 32.422-4.863 48.188 0 .797.242 1.632-.2 1.876-.991.243-.793-.201-1.633-.992-1.877z" fill="#3a312a"/>
			</g>
		</g>
		<g>
			<g>
				<path d="m141.699 116.438c-16.085-4.862-33.081-4.852-49.15.031-.793.241-1.24 1.079-1 1.871.197.647.792 1.064 1.435 1.064.145 0 .292-.021.437-.064 15.502-4.71 31.896-4.72 47.412-.031.788.242 1.63-.208 1.869-1.002.239-.792-.21-1.629-1.003-1.869z" fill="#3a312a"/>
			</g>
		</g>
		<g>
			<g>
				<path d="m78.388 104.711c-16.346-5.041-33.619-5.042-49.957 0-.792.244-1.235 1.084-.991 1.876.199.645.792 1.058 1.434 1.058.146 0 .295-.021.442-.066 15.76-4.863 32.422-4.863 48.188 0 .794.244 1.632-.199 1.876-.991s-.201-1.633-.992-1.877z" fill="#3a312a"/>
			</g>
		</g>
		<g>
			<g>
				<path d="m141.699 104.566c-16.085-4.862-33.081-4.851-49.15.031-.793.241-1.24 1.079-1 1.871.197.647.792 1.064 1.435 1.064.145 0 .292-.021.437-.064 15.502-4.71 31.895-4.72 47.412-.031.788.24 1.63-.207 1.869-1.002.239-.792-.21-1.629-1.003-1.869z" fill="#3a312a"/>
			</g>
		</g>
		<g>
			<g>
				<path d="m78.388 92.838c-16.346-5.042-33.619-5.042-49.957 0-.791.244-1.235 1.084-.991 1.876.199.645.792 1.058 1.434 1.058.146 0 .295-.021.442-.066 15.758-4.863 32.422-4.863 48.188 0 .794.242 1.632-.199 1.876-.991s-.201-1.633-.992-1.877z" fill="#3a312a"/>
			</g>
		</g>
		<g>
			<g>
				<path d="m141.699 92.693c-16.087-4.862-33.082-4.85-49.151.032-.792.241-1.239 1.079-.999 1.872.197.646.792 1.063 1.435 1.063.145 0 .292-.021.438-.064 15.498-4.709 31.892-4.721 47.411-.032.788.241 1.63-.207 1.869-1.002.239-.792-.21-1.629-1.003-1.869z" fill="#3a312a"/>
			</g>
		</g>
		<g>
			<g>
				<path d="m78.388 80.966c-16.346-5.041-33.619-5.042-49.957 0-.792.244-1.235 1.084-.991 1.876.199.645.792 1.058 1.434 1.058.146 0 .295-.021.442-.066 15.76-4.863 32.422-4.863 48.188 0 .794.242 1.632-.199 1.876-.991s-.201-1.633-.992-1.877z" fill="#3a312a"/>
			</g>
		</g>
		<g>
			<g>
				<path d="m141.699 80.821c-16.085-4.862-33.081-4.852-49.15.031-.793.241-1.24 1.079-1 1.871.197.647.792 1.064 1.435 1.064.145 0 .292-.021.437-.064 15.502-4.711 31.896-4.719 47.412-.031.788.241 1.63-.208 1.869-1.002.239-.793-.21-1.629-1.003-1.869z" fill="#3a312a"/>
			</g>
		</g>
		<g>
			<g>
				<path d="m227.117 137.148h-91.307c-2.461 0-4.457 1.995-4.457 4.457v11.795c0 2.461 1.995 4.457 4.457 4.457h91.307c2.461 0 4.457-1.995 4.457-4.457v-11.795c-.001-2.461-1.996-4.457-4.457-4.457z" fill="#8ac5dc"/>
			</g>
		</g>
		<g>
			<g>
				<path d="m227.117 135.648h-91.307c-3.284 0-5.956 2.672-5.956 5.957v11.795c0 3.284 2.672 5.956 5.956 5.956h91.308c3.284 0 5.956-2.672 5.956-5.956v-11.795c-.001-3.285-2.673-5.957-5.957-5.957zm2.956 17.752c0 1.63-1.326 2.956-2.956 2.956h-91.307c-1.63 0-2.956-1.326-2.956-2.956v-11.795c0-1.631 1.326-2.957 2.956-2.957h91.308c1.63 0 2.956 1.326 2.956 2.957v11.795z" fill="#3a312a"/>
			</g>
		</g>
		<g>
			<g>
				<path d="m193.099 137.148h20.797v20.708h-20.797z" fill="#ef6d7a"/>
			</g>
		</g>
		<g>
			<g>
				<path d="m213.896 135.648h-20.797c-.828 0-1.5.672-1.5 1.5v20.708c0 .828.672 1.5 1.5 1.5h20.797c.828 0 1.5-.672 1.5-1.5v-20.708c0-.828-.672-1.5-1.5-1.5zm-1.5 20.708h-17.797v-17.708h17.797z" fill="#3a312a"/>
			</g>
		</g>
		<g>
			<g>
				<path d="m209.439 117.303h-73.629c-2.461 0-4.457 1.995-4.457 4.457v10.932c0 2.461 1.995 4.457 4.457 4.457h73.629c2.461 0 4.456-1.995 4.456-4.457v-10.932c.001-2.462-1.994-4.457-4.456-4.457z" fill="#ef6d7a"/>
			</g>
		</g>
		<g>
			<g>
				<path d="m209.439 115.803h-38.749c-.828 0-1.5.672-1.5 1.5s.672 1.5 1.5 1.5h38.749c1.63 0 2.956 1.326 2.956 2.957v10.933c0 1.63-1.326 2.956-2.956 2.956h-73.63c-1.63 0-2.956-1.326-2.956-2.956v-10.933c0-1.631 1.326-2.957 2.956-2.957h20.834c.828 0 1.5-.672 1.5-1.5s-.672-1.5-1.5-1.5h-20.833c-3.284 0-5.956 2.672-5.956 5.957v10.933c0 3.284 2.672 5.956 5.956 5.956h73.63c3.284 0 5.956-2.672 5.956-5.956v-10.933c0-3.285-2.672-5.957-5.957-5.957z" fill="#3a312a"/>
			</g>
		</g>
		<g>
			<g>
				<path d="m182.208 117.303h17.129v19.845h-17.129z" fill="#d6df58"/>
			</g>
		</g>
		<g>
			<g>
				<path d="m199.337 115.803h-17.129c-.828 0-1.5.672-1.5 1.5v19.846c0 .828.672 1.5 1.5 1.5h17.129c.828 0 1.5-.672 1.5-1.5v-19.846c0-.828-.672-1.5-1.5-1.5zm-1.5 19.845h-14.129v-16.846h14.129z" fill="#3a312a"/>
			</g>
		</g>
		<g>
			<g>
				<path d="m205.483 17.117c-3.295-3.295-34.113 17.64-51.624 35.151-17.511 17.51-19.119 26.493-14.569 31.042 4.549 4.549 13.532 2.941 31.043-14.569 17.51-17.511 38.445-48.33 35.15-51.624z" fill="#ef6d7a"/>
			</g>
		</g>
		<g>
			<g>
				<path d="m206.544 16.056c-.918-.917-3.352-3.354-22.386 9.595-11.195 7.616-23.212 17.409-31.359 25.557-8.295 8.294-13.641 15.319-15.888 20.881-2.095 5.182-1.651 9.314 1.317 12.283 1.77 1.77 3.906 2.657 6.424 2.657 6.386 0 15.224-5.709 26.74-17.227 8.147-8.147 17.941-20.164 25.558-31.36 12.947-19.033 10.511-21.469 9.594-22.386zm-37.273 51.625c-9.919 9.919-22.986 20.498-28.922 14.569-2.065-2.065-2.28-5.022-.657-9.038 2.096-5.186 7.219-11.876 15.228-19.884 18.206-18.206 44.661-35.084 49.312-35.084.042 0 .082.001.12.004.307 4.298-16.711 31.064-35.081 49.433z" fill="#3a312a"/>
			</g>
		</g>
		<g>
			<g>
				<path d="m206.544 16.057c-.586-.586-1.535-.586-2.121 0l-84.967 84.966c-.586.586-.586 1.535 0 2.121.293.293.677.439 1.061.439s.768-.146 1.061-.439l84.967-84.966c.585-.586.585-1.535-.001-2.121z" fill="#3a312a"/>
			</g>
		</g>
		<g>
			<g>
				<path d="m232.95 159.349h-18c3.06 0 5.55 2.49 5.55 5.55v7.71c0 3.06-2.49 5.55-5.55 5.55h18c3.06 0 5.55-2.49 5.55-5.55v-7.71c0-3.061-2.49-5.55-5.55-5.55z" fill="#6a5c52"/>
			</g>
		</g>
		<g>
			<g>
				<path d="m200.33 181.168h18v56.56h-18z" fill="#6a5c52"/>
			</g>
		</g>
	</symbol>
	<symbol id="feather" viewBox="0 0 468.293 468.293">
		<title>feather</title>
		<path style="fill:#3A556A;" d="M121.036,468.293H75.994c-17.322,0-31.414-14.096-31.414-31.421v-6.069 c0-4.659,3.776-8.435,8.435-8.435s8.435,3.776,8.435,8.435v6.069c0,8.02,6.524,14.551,14.544,14.551h45.042 c15.42,0,27.968-12.547,27.968-27.974c0-24.725,20.116-44.838,44.841-44.838h44.637c4.659,0,8.435,3.776,8.435,8.435 c0,4.659-3.776,8.435-8.435,8.435h-44.637c-15.424,0-27.971,12.547-27.971,27.968C165.874,448.174,145.758,468.293,121.036,468.293z "/>
		<path style="fill:#FCD462;" d="M80.111,324.456c-19.672-37.171-4.22-103.328-4.22-103.328l27.955,28.51l-14.122-61.907 C179.611,52.815,423.712,0,423.712,0s-51.348,100.607-125.535,174.611l-46.268,0.76l31.998,13.254c0,0-37.344,46.364-63.693,63.263 l-44.434-3.667l29.59,19.068C205.371,267.288,141.23,331.634,80.111,324.456z"/>
		<path style="fill:#64798A;" d="M402.775,15.513c0,0-301.97,177.239-350.278,378.527l23.325-24.198 C75.822,369.842,150.851,206.226,402.775,15.513z"/>
	</symbol>
	<symbol id="poem" viewBox="0 0 512 512">
		<title>poem</title>
		<path d="m201.864 348.387c-5.289 10.871-8.262 23.077-8.262 35.979 0 45.484 36.872 82.356 82.356 82.356s82.356-36.872 82.356-82.356c0-12.902-2.973-25.108-8.262-35.979z" fill="#fa6931"/>
		<path d="m350.053 348.387h-35.41c5.289 10.871 8.262 23.077 8.262 35.979 0 39.404-27.68 72.325-64.651 80.427 5.705 1.25 11.624 1.929 17.705 1.929 45.484 0 82.356-36.872 82.356-82.356 0-12.902-2.973-25.108-8.262-35.979z" fill="#fc5327"/>
		<g fill="#eedfda">
			<path d="m128.674 493.548c0 6.306-7.031 10.005-12.266 6.49-8.267-5.551-20.632-11.159-36.852-11.159-19.587 0-33.553 8.178-41.468 14.558-3.078 2.481-7.65.297-7.65-3.656v-111.553c0-2.262.879-4.431 2.462-6.046 5.775-5.892 21.625-19.246 46.656-19.246 32.115 0 49.118 21.983 49.118 21.983z"/>
			<path d="m226.909 499.78c0 3.953-4.572 6.137-7.65 3.656-7.915-6.38-21.881-14.558-41.468-14.558-16.22 0-28.586 5.608-36.852 11.159-5.235 3.515-12.266-.184-12.266-6.49v-108.628s17.002-21.983 49.118-21.983c25.031 0 40.881 13.355 46.656 19.246 1.583 1.615 2.462 3.785 2.462 6.046z"/>
			<path d="m226.909 499.78c0 3.953-4.572 6.137-7.65 3.656-7.915-6.38-21.881-14.558-41.468-14.558-16.22 0-28.586 5.608-36.852 11.159-5.235 3.515-12.266-.184-12.266-6.49v-108.628s17.002-21.983 49.118-21.983c25.031 0 40.881 13.355 46.656 19.246 1.583 1.615 2.462 3.785 2.462 6.046z"/>
		</g>
		<path d="m208.319 370.347v92.054c0 5.459-5.294 9.364-10.499 7.717-5.832-1.845-12.514-3.049-20.028-3.049-32.115 0-49.118 21.983-49.118 21.983v4.495c0 6.306 7.031 10.005 12.266 6.49 8.267-5.551 20.632-11.159 36.852-11.159 19.587 0 33.553 8.178 41.468 14.558 3.078 2.481 7.65.297 7.65-3.656v-111.548c0-2.283-.905-4.463-2.506-6.091-2.902-2.949-8.303-7.736-16.085-11.794z" fill="#ded0cb"/>
		<path d="m108.978 369.779v92.28c0 5.414-5.208 9.297-10.396 7.749-5.592-1.668-11.941-2.739-19.026-2.739-32.115 0-49.118 21.983-49.118 21.983v10.728c0 3.953 4.572 6.137 7.65 3.656 7.915-6.38 21.881-14.558 41.468-14.558 16.22 0 28.586 5.608 36.852 11.159 5.235 3.515 12.266-.184 12.266-6.49v-108.628s-6.725-8.687-19.696-15.14z" fill="#ded0cb"/>
		<path d="m387.664 259.632c-.352 67.752-61.844 173.054-112.608 173.08s-111.159-106.487-110.807-174.24c.351-67.752 15.424-158.959 112.361-159.008s111.405 92.415 111.054 160.168z" fill="#ffcbbe"/>
		<path d="m284.142 99.667c49.071 27.606 57.718 94.978 57.446 147.507-.325 62.673-52.966 157.464-101.039 171.348 11.463 8.927 23.223 14.195 34.507 14.19 50.764-.026 112.257-105.328 112.608-173.08.342-65.955-13.372-155.314-103.522-159.965z" fill="#fdad9d"/>
		<path d="m154.421 337.322 35.428-157.786h-1.041c-42.739 0-74.455 39.626-65.092 81.327l17.167 76.459c1.622 7.223 11.916 7.223 13.538 0z" fill="#eedfda"/>
		<path d="m397.496 337.322-35.428-157.786h1.041c42.739 0 74.455 39.626 65.091 81.327l-17.167 76.459c-1.621 7.223-11.915 7.223-13.537 0z" fill="#eedfda"/>
		<path d="m188.854 179.535c-6.272 0-12.305.859-18.008 2.446l-32.421 144.395 2.454 10.928c1.623 7.228 11.922 7.228 13.545 0l35.424-157.769z" fill="#ded0cb"/>
		<path d="m363.063 179.535h-.994l.549 2.446c33.178 9.235 55.114 43.322 47.12 78.926l-14.7 65.469 2.454 10.928c1.623 7.228 11.923 7.228 13.545 0l17.153-76.397c9.37-41.723-22.364-81.372-65.127-81.372z" fill="#ded0cb"/>
		<path d="m269.741 172.669c48.066 0 90.665 20.717 117.037 52.615 4.487 5.427 13.05 4.497 16.133-1.834 7.585-15.574 11.789-32.742 11.789-50.781 0-70.892-64.901-128.361-144.96-128.361s-144.96 57.469-144.96 128.361c0 18.038 4.204 35.206 11.789 50.781 3.083 6.331 11.646 7.261 16.133 1.834 26.374-31.898 68.973-52.615 117.039-52.615z" fill="#fa6931"/>
		<path d="m269.741 44.308c-9.865 0-19.498.876-28.81 2.539 66.257 11.831 116.15 63.666 116.15 125.822 0 8.281-.896 16.375-2.589 24.219 12.369 7.908 23.275 17.498 32.285 28.395 4.487 5.427 13.05 4.497 16.133-1.834 7.585-15.574 11.789-32.742 11.789-50.78.001-70.892-64.899-128.361-144.958-128.361z" fill="#fc5327"/>
		<path d="m405.337 45.373c2.202-.687 4.414 1.023 4.304 3.327-.426 8.916-2.824 29.261-15.364 45.484s-31.625 23.669-40.146 26.328c-2.202.687-4.414-1.023-4.304-3.327.426-8.916 2.824-29.261 15.364-45.484s31.625-23.67 40.146-26.328z" fill="#2bb080"/>
		<path d="m405.337 45.373c-3.116.972-7.646 2.588-12.751 5.036-.89 10.057-4.065 27.547-15.114 41.84-7.955 10.291-18.54 17.046-27.395 21.292-.12 1.357-.2 2.583-.251 3.643-.11 2.304 2.102 4.014 4.304 3.327 8.521-2.658 27.606-10.105 40.146-26.328 12.54-16.222 14.938-36.568 15.364-45.484.111-2.303-2.101-4.013-4.303-3.326z" fill="#09a66d"/>
		<path d="m319.66 109.83c2.202-.687 4.414 1.023 4.304 3.327-.426 8.916-2.824 29.261-15.364 45.484s-31.625 23.669-40.146 26.328c-2.202.687-4.414-1.023-4.304-3.327.426-8.916 2.824-29.261 15.364-45.484s31.625-23.67 40.146-26.328z" fill="#2bb080"/>
		<path d="m319.66 109.83c-3.116.972-7.646 2.588-12.751 5.036-.89 10.057-4.065 27.547-15.114 41.84-7.955 10.291-18.54 17.046-27.395 21.292-.12 1.357-.2 2.583-.251 3.643-.11 2.304 2.102 4.014 4.304 3.327 8.521-2.658 27.606-10.105 40.146-26.328 12.54-16.222 14.938-36.568 15.364-45.484.112-2.303-2.101-4.013-4.303-3.326z" fill="#09a66d"/>
		<path d="m281.589 8.485c1.625-1.637 4.38-1.16 5.361.928 3.794 8.08 11.19 27.184 7.694 47.388s-16.881 35.712-23.169 42.048c-1.625 1.637-4.38 1.16-5.361-.928-3.794-8.08-11.19-27.184-7.694-47.388s16.881-35.713 23.169-42.048z" fill="#2bb080"/>
		<path d="m281.589 8.485c-2.299 2.316-5.548 5.864-8.915 10.415 3.917 9.305 9.292 26.249 6.211 44.051-2.218 12.816-8.414 23.739-14.255 31.633.529 1.256 1.031 2.377 1.482 3.337.98 2.088 3.736 2.564 5.361.928 6.288-6.335 19.673-21.844 23.169-42.048s-3.9-39.308-7.694-47.388c-.979-2.088-3.734-2.565-5.359-.928z" fill="#09a66d"/>
		<path d="m154.155 33.347c.66-2.21 3.314-3.091 5.163-1.713 7.159 5.331 22.698 18.681 29.155 38.142s1.979 39.452-.574 48.005c-.66 2.21-3.314 3.091-5.163 1.713-7.159-5.331-22.698-18.681-29.155-38.142s-1.978-39.452.574-48.005z" fill="#2bb080"/>
		<path d="m154.155 33.347c-.933 3.128-2.122 7.789-2.942 13.39 7.846 6.354 20.583 18.753 26.272 35.9 4.096 12.345 3.79 24.899 2.368 34.616 1.059.857 2.031 1.608 2.882 2.242 1.85 1.378 4.504.497 5.164-1.713 2.552-8.553 7.03-28.544.574-48.005-6.457-19.461-21.996-32.81-29.155-38.142-1.849-1.379-4.503-.498-5.163 1.712z" fill="#09a66d"/>
		<path d="m155.203 145.967c-.949-2.102.481-4.506 2.781-4.676 8.902-.658 29.388-.743 47.011 9.737s27.328 28.522 31 36.658c.949 2.102-.481 4.506-2.781 4.676-8.902.658-29.388.743-47.011-9.737s-27.329-28.521-31-36.658z" fill="#2bb080"/>
		<path d="m155.203 145.968c1.343 2.975 3.496 7.276 6.544 12.046 10.091-.335 27.836.696 43.364 9.93 11.179 6.649 19.168 16.337 24.456 24.612 1.361-.045 2.588-.115 3.647-.193 2.3-.17 3.73-2.574 2.781-4.676-3.672-8.136-13.377-26.177-31-36.658s-38.109-10.396-47.011-9.738c-2.301.171-3.73 2.574-2.781 4.677z" fill="#09a66d"/>
		<path d="m71.361 114.591c-.161-2.301 2.014-4.059 4.23-3.421 8.578 2.47 27.821 9.495 40.715 25.438s15.74 36.23 16.361 45.134c.161 2.301-2.014 4.059-4.23 3.421-8.578-2.47-27.821-9.495-40.715-25.438s-15.739-36.229-16.361-45.134z" fill="#2bb080"/>
		<path d="m71.361 114.591c.227 3.256.755 8.037 1.96 13.568 9.581 3.185 25.867 10.307 37.228 24.354 8.179 10.113 12.312 21.971 14.402 31.566 1.293.43 2.467.79 3.487 1.084 2.216.638 4.391-1.12 4.23-3.421-.622-8.904-3.468-29.192-16.362-45.134-12.894-15.943-32.138-22.968-40.715-25.438-2.216-.638-4.39 1.12-4.23 3.421z" fill="#09a66d"/>
		<path d="m478.135 126.537c2.305-.075 3.981 2.164 3.261 4.355-2.789 8.479-10.527 27.448-26.94 39.737-16.413 12.29-36.792 14.376-45.714 14.665-2.305.075-3.981-2.164-3.261-4.355 2.789-8.479 10.527-27.448 26.94-39.737s36.793-14.376 45.714-14.665z" fill="#2bb080"/>
		<path d="m478.135 126.537c-3.262.106-8.06.455-13.632 1.452-3.541 9.455-11.265 25.464-25.727 36.293-10.411 7.796-22.416 11.483-32.082 13.213-.478 1.276-.882 2.436-1.213 3.444-.72 2.191.956 4.429 3.261 4.355 8.921-.289 29.301-2.375 45.714-14.665s24.151-31.258 26.94-39.737c.721-2.191-.955-4.43-3.261-4.355z" fill="#09a66d"/>
		<ellipse cx="226.134" cy="268.897" rx="14.736" ry="14.736" transform="matrix(.005 -1 1 .005 -43.932 493.633)"/>
		<ellipse cx="325.783" cy="269.435" rx="14.736" ry="14.736" transform="matrix(.005 -1 1 .005 54.662 593.815)"/>
		<path d="m252.72 241.838c2.75-3.101 2.465-7.844-.636-10.593-6.151-5.455-15.61-8.583-25.95-8.583s-19.798 3.128-25.95 8.583c-3.101 2.75-3.386 7.492-.636 10.593 2.749 3.1 7.492 3.386 10.593.636 2.619-2.322 8.196-4.804 15.992-4.804 7.797 0 13.373 2.482 15.992 4.804 1.429 1.267 3.206 1.89 4.976 1.89 2.074 0 4.136-.854 5.619-2.526z"/>
		<path d="m351.733 231.245c-6.151-5.455-15.61-8.583-25.95-8.583s-19.799 3.128-25.95 8.583c-3.101 2.75-3.386 7.492-.636 10.593 2.749 3.1 7.492 3.386 10.593.636 2.619-2.322 8.196-4.804 15.992-4.804s13.373 2.482 15.992 4.804c1.429 1.267 3.206 1.89 4.976 1.89 2.072 0 4.135-.854 5.617-2.525 2.751-3.101 2.467-7.844-.634-10.594z"/>
		<path d="m298.487 326.971h-45.057c-4.144 0-7.504 3.36-7.504 7.504s3.36 7.504 7.504 7.504h45.057c4.144 0 7.504-3.36 7.504-7.504s-3.36-7.504-7.504-7.504z"/>
		<path d="m486.907 123.367c-2.116-2.826-5.493-4.46-9.015-4.33-11.082.359-32.31 2.936-49.969 16.158-11.282 8.448-18.791 19.509-23.656 29.149-9.289-15.481-21.921-29.368-37.213-40.681 6.482-2.839 13.917-6.898 20.964-12.567 2.718 4.027 5.182 8.195 7.34 12.451 1.323 2.609 3.961 4.113 6.699 4.113 1.141 0 2.3-.261 3.387-.812 3.696-1.874 5.174-6.39 3.3-10.086-2.852-5.627-6.167-11.115-9.868-16.36.446-.542.903-1.066 1.337-1.627 13.492-17.455 16.394-38.641 16.922-49.714.169-3.527-1.397-6.921-4.19-9.081-2.794-2.159-6.474-2.821-9.844-1.769-9.985 3.115-28.138 10.549-41.491 26.032-17.422-11.729-37.499-20.007-58.752-24.208-1.048-14.354-5.751-26.643-9.116-33.81-1.501-3.196-4.473-5.464-7.952-6.065-3.48-.599-7.041.535-9.527 3.041-6.335 6.383-16.521 18.409-22.151 34.322-22.389 2.038-44.023 8.502-63.249 18.866-7.93-14.967-19.831-25.389-27.063-30.775-2.832-2.108-6.523-2.704-9.873-1.591-3.35 1.112-5.953 3.795-6.962 7.178-3.171 10.624-7.453 31.574-.506 52.514.705 2.125 1.523 4.163 2.397 6.149-11.386 13.186-19.927 28.1-25.23 43.937-.483-.642-.975-1.28-1.486-1.911-13.873-17.153-33.819-24.862-44.473-27.93-3.394-.977-7.057-.235-9.802 1.985s-4.237 5.648-3.991 9.17c.773 11.061 4.14 32.178 18.013 49.331 10.937 13.523 25.631 21.16 36.589 25.297 1.019 7.242 2.685 14.373 4.985 21.342-8.499 15.727-11.01 33.864-7.058 51.468l17.153 76.397c1.515 6.747 7.179 11.281 14.095 11.281s12.579-4.533 14.094-11.281l5.166-23.006c4.306 13.267 9.856 26.687 16.447 39.697-1.81-.132-3.662-.208-5.567-.208-24.386 0-40.929 11.337-49.118 18.72-8.189-7.384-24.731-18.72-49.118-18.72-27.929 0-45.679 15.034-52.016 21.498-2.97 3.031-4.607 7.044-4.607 11.298v13.323c0 4.144 3.36 7.504 7.504 7.504s7.504-3.36 7.504-7.504v-13.323c0-.303.112-.585.317-.793 5.009-5.11 19.059-16.995 41.297-16.995 23.009 0 37.099 12.543 41.613 17.297v105.811c0 .126 0 .201-.168.291-.202.107-.308.037-.41-.031-8.447-5.672-22.423-12.433-41.036-12.433-18.299 0-32.213 6.368-41.614 12.822v-56.481c0-4.144-3.36-7.504-7.504-7.504s-7.504 3.36-7.504 7.504v62.065c0 4.745 2.657 8.964 6.935 11.01 1.697.812 3.5 1.211 5.288 1.211 2.722 0 5.41-.924 7.641-2.721 7.299-5.883 19.6-12.896 36.759-12.896 11.91 0 22.901 3.326 32.669 9.884 4.741 3.183 10.809 3.495 15.837.815.209-.111.41-.234.612-.354.202.12.403.242.612.354 5.028 2.68 11.097 2.368 15.837-.815 9.768-6.559 20.759-9.884 32.669-9.884 17.159 0 29.46 7.013 36.759 12.896 2.23 1.798 4.918 2.721 7.641 2.721 1.788 0 3.591-.399 5.288-1.211 4.277-2.046 6.935-6.265 6.935-11.01v-35.706c12.743 6.671 26.876 10.153 41.545 10.153 49.549 0 89.861-40.311 89.861-89.861 0-6.859-.778-13.697-2.313-20.324-.008-.034-.02-.067-.029-.101 8.699-15.559 16.017-32.13 21.418-48.488l5.276 23.496c1.515 6.747 7.179 11.281 14.094 11.281 6.916 0 12.58-4.534 14.095-11.281l17.153-76.397c5.121-22.809-.848-46.736-15.977-64.478.446-2.102.84-4.214 1.174-6.337 11.249-1.659 25.652-5.672 38.243-15.1 17.66-13.224 26.107-32.868 29.57-43.399 1.105-3.358.5-7.048-1.616-9.873zm-83.384 77.066c-1.805 6.742-4.247 13.342-7.358 19.73-.41.843-1.103 1.092-1.612 1.153-.45.051-1.302.019-1.991-.814-20.857-25.227-50.21-42.962-83.689-50.823 1.973-1.997 3.876-4.136 5.665-6.45 11.222-14.516 15.115-31.61 16.413-43.326 35.742 15.526 62.893 44.434 72.572 80.53zm-144.888-34.899c-8.311.535-16.553 1.665-24.617 3.389-5.808-8.505-14.016-17.699-25.188-24.344-8.827-5.249-18.178-8.121-26.769-9.61 23.934-17.38 54.583-27.56 87.68-27.56 10.176 0 20.12.965 29.71 2.803-8.782 4.72-18.313 11.575-25.873 21.356-8.499 10.995-12.794 23.469-14.943 33.966zm-122.676 34.899c3.818-14.24 10.357-27.36 19.068-38.982 5.862 9.346 14.711 20.113 27.34 27.624.171.102.345.19.516.29-13.77 8.538-26.031 19.124-35.963 31.137-.688.833-1.544.866-1.991.814-.509-.061-1.202-.31-1.612-1.153-3.112-6.388-5.554-12.988-7.358-19.73zm60.547-130.029c16.394-9.092 34.811-15.034 53.98-17.408-1.814 15.46 1.69 29.812 5.427 39.951-20.531 1.618-40.15 6.849-58.1 15.453 1.85-10.438 2.614-24.109-1.307-37.996zm-6.468 105.772c-12.118-7.207-20.157-18.661-24.691-26.771.273-.28.546-.558.822-.836 9.289.145 23.012 1.787 34.99 8.911 12.543 7.459 20.727 19.48 25.166 27.622-9.273-.014-23.743-1.466-36.287-8.926zm95.414-35.429c8.925-11.547 21.849-18.213 30.469-21.632-1.137 9.203-4.333 23.391-13.258 34.936-8.925 11.547-21.849 18.213-30.469 21.632 1.137-9.203 4.333-23.39 13.258-34.936zm116.146-86.089c-1.137 9.203-4.333 23.389-13.258 34.936s-21.849 18.213-30.469 21.632c1.137-9.203 4.333-23.39 13.258-34.937 8.925-11.546 21.849-18.212 30.469-21.631zm-99.56 3.422c.163-.941.298-1.877.42-2.811 18.311 3.941 35.572 11.214 50.623 21.32-6.249 11.435-8.946 23.368-10.076 32.456-17.534-8.608-36.694-13.973-56.763-15.869 6.561-8.785 13.322-20.795 15.796-35.096zm-19.411-39.639c3.3 8.667 7.11 22.701 4.622 37.08-2.488 14.38-10.793 26.318-16.813 33.371-3.3-8.666-7.111-22.7-4.623-37.08 2.489-14.38 10.794-26.318 16.814-33.371zm-121.281 17.052c0 .002-.001.005-.002.007.001-.002.002-.004.002-.007zm-1.576 6.14c7.001 6.083 16.985 16.655 21.58 30.506s2.91 28.295.934 37.355c-7.001-6.082-16.986-16.655-21.58-30.505-4.595-13.852-2.91-28.296-.934-37.356zm-2.962 62.156c5.688 7.986 12.158 14.21 17.425 18.56-4.9 3.513-9.538 7.284-13.89 11.288-1.033.046-2.01.104-2.913.171-3.521.26-6.701 2.227-8.505 5.261-1.413 2.376-1.833 5.178-1.258 7.828-3.954 4.712-7.562 9.646-10.8 14.765-.751-2.78-1.664-5.657-2.766-8.576 3.282-17.685 11.059-34.555 22.707-49.297zm-77.96 10.279v.009c0-.003 0-.006 0-.009zm14.709 40.939c-9.177-11.347-12.684-25.46-14.023-34.636 8.693 3.228 21.761 9.609 30.938 20.956s12.684 25.46 14.024 34.636c-8.694-3.228-21.762-9.609-30.939-20.956zm125.848 339.189c-9.401-6.454-23.314-12.822-41.614-12.822-18.613 0-32.589 6.761-41.036 12.433-.102.069-.206.139-.41.031-.168-.089-.168-.165-.168-.291v-105.801c4.509-4.726 18.67-17.306 41.614-17.306 22.238 0 36.288 11.885 41.297 16.994.205.209.317.491.317.793zm56.554-34.978c-14.956 0-29.238-4.346-41.545-12.588v-23.404c13.864 11.161 27.71 16.99 40.624 16.99h.022c23.431-.012 49.583-18.742 73.637-52.742.714-1.009 1.411-2.044 2.113-3.07-.021 41.256-33.591 74.814-74.851 74.814zm60.485-80.412c-20.857 29.479-43.234 46.392-61.393 46.402-.005 0-.009 0-.014 0-12.149 0-26.168-7.681-40.623-22.197v-14.782c0-4.255-1.636-8.267-4.607-11.299-4.197-4.282-13.407-12.32-27.262-17.262-13.741-24.352-24.042-51.86-28.396-75.957l8.956-39.887c.908-4.044-1.634-8.058-5.678-8.966-4.041-.905-8.058 1.634-8.966 5.678l-20.81 92.676-16.603-73.948c-2.207-9.827-1.874-19.856.835-29.29 2.764 3.443 6.769 5.709 11.267 6.246.689.083 1.377.123 2.061.123 5.106 0 9.958-2.263 13.276-6.276 11.132-13.464 25.566-24.952 41.871-33.368 9.497 2.673 18.62 3.426 25.833 3.426 2.857 0 5.414-.117 7.576-.277 3.522-.26 6.701-2.227 8.506-5.261 1.804-3.034 2.014-6.766.562-9.985-.277-.615-.579-1.264-.901-1.938 4.865-.879 9.79-1.535 14.752-1.947-.01.19-.021.384-.03.568-.168 3.527 1.399 6.921 4.192 9.08 1.919 1.483 4.255 2.259 6.622 2.259 1.079 0 2.165-.161 3.22-.491 5.674-1.77 13.991-4.952 22.562-10.194 25.676 3.892 49.131 13.971 68.186 29.036l16.292 72.561c-5.764 31.27-21.16 66.823-41.286 95.27zm84.425-119.542-16.605 73.948-23.123-102.987c3.314 3.909 8.094 6.117 13.129 6.117.683 0 1.371-.041 2.061-.123 5.788-.691 10.77-4.236 13.326-9.484 1.661-3.411 3.156-6.876 4.493-10.386 7.504 12.826 10.033 28.158 6.719 42.915zm29.089-94.642c-11.68 8.747-25.915 11.725-35.135 12.721 3.551-8.567 10.415-21.387 22.096-30.134s25.916-11.725 35.135-12.721c-3.549 8.566-10.413 21.386-22.096 30.134z"/>
	</symbol>
</svg>